<svg xmlns="http://www.w3.org/2000/svg" viewBox="0 0 1280 720" role="img" aria-labelledby="title desc">
  <title id="title">VellumVault logo</title>
  <desc id="desc">A brass fantasy-noir vault book mark with VellumVault wordmark.</desc>
  <defs>
    <radialGradient id="bg" cx="50%" cy="26%" r="72%">
      <stop offset="0%" stop-color="#4a3520" />
      <stop offset="54%" stop-color="#1b1512" />
      <stop offset="100%" stop-color="#07080a" />
    </radialGradient>
    <linearGradient id="gold" x1="0%" y1="0%" x2="100%" y2="100%">
      <stop offset="0%" stop-color="#ffe29b" />
      <stop offset="52%" stop-color="#b98b43" />
      <stop offset="100%" stop-color="#6e4b22" />
    </linearGradient>
    <filter id="shadow" x="-20%" y="-20%" width="140%" height="140%">
      <feDropShadow dx="0" dy="0" stdDeviation="10" flood-color="#d5a24d" flood-opacity="0.38" />
      <feDropShadow dx="0" dy="16" stdDeviation="22" flood-color="#000000" flood-opacity="0.7" />
    </filter>
  </defs>
  <rect width="1280" height="720" fill="url(#bg)" />
  <g transform="translate(510 58)" filter="url(#shadow)">
    <path d="M130 0 238 35v82c0 69-40 128-108 160C62 245 22 186 22 117V35L130 0Z" fill="#101116" stroke="url(#gold)" stroke-width="12" />
    <path d="M60 80c30-15 51-14 70 1 19-15 40-16 70-1v108c-27-12-49-11-70 6-21-17-43-18-70-6V80Z" fill="#ead7a4" stroke="#b98b43" stroke-width="7" />
    <path d="M130 82v112" stroke="#765426" stroke-width="6" />
    <circle cx="130" cy="132" r="20" fill="#111217" stroke="#d7a852" stroke-width="7" />
    <path d="M130 139v34" stroke="#d7a852" stroke-width="9" stroke-linecap="round" />
    <path d="M130 25 140 54 171 55 146 74 155 104 130 86 105 104 114 74 89 55 120 54 130 25Z" fill="#f8d77c" stroke="#87602b" stroke-width="4" />
  </g>
  <text x="640" y="410" text-anchor="middle" fill="url(#gold)" font-family="Georgia, 'Times New Roman', serif" font-size="94" font-weight="700" letter-spacing="3">VellumVault</text>
  <text x="640" y="472" text-anchor="middle" fill="#e8d8b0" font-family="Arial, sans-serif" font-size="25" letter-spacing="8">RED VELLUM STUDIO</text>
  <path d="M410 512h460" stroke="url(#gold)" stroke-width="3" opacity="0.76" />
  <path d="M520 538h240" stroke="#e8d8b0" stroke-width="2" opacity="0.38" />
</svg>
